<?xml version="1.0" standalone="no"?>
<!DOCTYPE svg PUBLIC "-//W3C//DTD SVG 1.1//EN" "http://www.w3.org/Graphics/SVG/1.1/DTD/svg11.dtd" >
<svg xmlns="http://www.w3.org/2000/svg" xmlns:xlink="http://www.w3.org/1999/xlink" version="1.1">
<metadata>
Created by FontForge 20201107 at Sun Jun  7 12:01:28 2020
 By 
Copyright (c) 2020 by Vladimir Nikolic. All rights reserved.
</metadata>
<defs>
<font id="Clowns-Regular" horiz-adv-x="489" >
  <font-face 
    font-family="Clowns"
    font-weight="400"
    font-stretch="normal"
    units-per-em="1000"
    panose-1="0 0 0 0 0 0 0 0 0 0"
    ascent="750"
    descent="-250"
    x-height="736"
    cap-height="737"
    bbox="-9 -209 721 737"
    underline-thickness="50"
    underline-position="-100"
    unicode-range="U+000D-007A"
  />
<missing-glyph horiz-adv-x="228" 
 />
    <glyph glyph-name=".notdef" horiz-adv-x="228" 
 />
    <glyph glyph-name=".null" horiz-adv-x="0" 
 />
    <glyph glyph-name="nonmarkingreturn" unicode="&#xd;" horiz-adv-x="228" 
 />
    <glyph glyph-name="NULL" horiz-adv-x="0" 
 />
    <glyph glyph-name="NULL" horiz-adv-x="0" 
 />
    <glyph glyph-name="space" unicode=" " horiz-adv-x="228" 
 />
    <glyph glyph-name="A" unicode="A" horiz-adv-x="493" 
d="M49 -107q-28 16 -39.5 45t-11.5 67l-3 494q0 52 10.5 95.5t35 75t64 49.5t98.5 18h39q63 0 104 -20t65 -55l29 -29q32 -32 45 -79t13 -105v-421q0 -22 -3 -37v-36q0 -56 -26 -90t-89 -34q-31 0 -51 7t-33 20l-28 28q-10 -24 -33.5 -39.5t-69.5 -15.5q-29 0 -49 7.5
t-34 21.5zM400 14q0 -35 -15.5 -56.5t-53.5 -21.5q-30 0 -44.5 13.5t-20 33.5t-5 76.5t0.5 77.5q0 19 -20 19h-39q-19 0 -19 -19q0 -22 1 -78t-4 -76.5t-19.5 -33.5t-45.5 -13q-38 0 -53 21.5t-15 56.5l-1 485q0 40 8 74t26 59t48 39t74 14h39q44 0 74 -14t48.5 -38.5
t26.5 -59t8 -74.5zM262 371q0 20 -20 20h-39q-19 0 -19 -20v-78q0 -19 19 -19h39q20 0 20 19v78zM439 499q0 49 -10 90.5t-33 71.5t-61 47t-93 17h-39q-55 0 -92.5 -17t-60.5 -47t-33 -71.5t-10 -90.5l3 -494q0 -51 23.5 -83t81.5 -32q37 0 58 11t31.5 29t13.5 41t3 47v22v6
h3q0 -5 1 -7v-22q0 -24 3 -47t13.5 -40.5t31.5 -28.5t57 -11q58 0 82 31.5t24 83.5v38q3 16 3 35v421z" />
    <glyph glyph-name="B" unicode="B" horiz-adv-x="486" 
d="M240 736q63 0 103.5 -20t64.5 -55l29 -29q32 -32 45 -79t13 -104v-157q0 -26 -3 -47v-26q0 -17 -1.5 -34t-6.5 -32q6 -16 8.5 -32.5t2.5 -33.5l-3 -73q0 -50 -14.5 -85t-41 -57t-64 -31.5t-82.5 -9.5h-128q-29 0 -49 7.5t-34 21.5l-33 33q-28 16 -39.5 45t-11.5 67
l-3 582q0 149 150 149h98zM240 684q44 0 74 -14t48 -38.5t26 -58.5t8 -74v-227q0 -32 -9 -62t-37 -49q25 -16 35.5 -40.5t10.5 -53.5q0 -75 -42.5 -106t-113.5 -31h-128q-38 0 -53 21.5t-15 56.5v579q0 97 98 97h98zM181 67q0 -20 19 -20h40q19 0 19 20q0 26 -19 26h-40
q-19 0 -19 -26zM259 371q0 20 -19 20h-40q-19 0 -19 -20v-148q0 -19 19 -19h40q19 0 19 19v148zM142 724q-138 0 -138 -137l3 -582q0 -51 23.5 -83t81.5 -32h128q43 0 79 9.5t66 31t43.5 93.5t-24.5 129q25 66 27 82.5t2 33.5v27q3 22 3 46v157q0 49 -10 90t-33 71t-60.5 47
t-92.5 17h-98z" />
    <glyph glyph-name="C" unicode="C" 
d="M74 -90q-40 26 -58.5 71.5t-18.5 110.5l-3 427q0 105 49.5 161.5t158.5 56.5h40q64 0 106.5 -19.5t67.5 -57.5l27 -27q54 -54 54 -164v-222q0 -22 -3 -37v-36q0 -37 -10 -58q9 -23 10.5 -54.5t-4.5 -65.5t-21 -66.5t-39.5 -56.5t-58.5 -36.5t-79 -5.5h-40q-99 0 -149 50z
M183 62q0 -20 19 -20h40q19 0 19 20v36t5 31.5t17.5 22t36.5 8.5h19q37 0 48 -19t11 -51q0 -79 -37.5 -122t-118.5 -43h-40q-81 0 -118.5 43t-37.5 122v429q0 79 37 122.5t119 43.5h40q82 0 119 -43.5t37 -122.5l1 -265q0 -21 -6 -32.5t-16.5 -17t-24.5 -7t-31 -1.5
q-59 0 -59 58q-1 137 -20 137h-40q-19 0 -19 -20v-309zM438 519q0 98 -46.5 152t-149.5 54h-40q-103 0 -149.5 -54t-46.5 -152l3 -427q0 -97 46 -149.5t147 -52.5h40q101 0 147 52.5t47.5 88t1.5 60.5q0 23 -3 41.5t-12 32.5q12 21 12 59v38q3 15 3 109v148z" />
    <glyph glyph-name="D" unicode="D" 
d="M46 -107q-28 16 -39 45t-11 68l-3 581q0 150 149 150h98q63 0 106 -19t68 -56l29 -29q53 -53 53 -163v-217.5t-0.5 -117.5t-1 -50.5t-1.5 -16.5v-25q0 -103 -48 -157.5t-155 -54.5h-127q-55 0 -83 28zM182 71q0 -19 19 -19h39q20 0 20 19v301q0 20 -20 20h-39
q-19 0 -19 -20v-301zM397 100q0 -80 -37.5 -123t-119.5 -43h-127q-38 0 -53 22t-15 57v574q0 98 97 98h98q82 0 119.5 -42.5t37.5 -122.5v-420zM437 520q0 100 -47 152.5t-150 52.5h-98q-137 0 -137 -138l3 -581q0 -52 23 -84t82 -32h127q102 0 148 52.5t50 150.5v26z" />
    <glyph glyph-name="E" unicode="E" horiz-adv-x="493" 
d="M52 -107q-28 16 -39.5 45t-11.5 67l-3 582q0 150 150 150h156q94 0 129 -60l31 -30q37 -39 37 -110l-3 -171q0 -45 -21.5 -76.5t-49.5 -48.5q9 -6 16 -19.5t12 -30t6 -33.5t-2 -30v-26l14 -14q28 -28 28 -79q0 -19 -3 -34v-39q0 -105 -105 -105h-225q-29 0 -49 7.5
t-34 21.5zM187 68q0 -20 19 -20h137q59 0 59 -58q0 -59 -59 -59h-225q-38 0 -53 21.5t-15 56.5v578q0 98 98 98h156q98 0 98 -98v-98q0 -98 -98 -98h-98q-19 0 -19 -19v-147q0 -20 19 -20h79q17 0 31 -1.5t24.5 -7.5t16.5 -18t6 -32t-6 -31.5t-16.5 -17.5t-25 -7.5
t-30.5 -1.5h-79q-19 0 -19 -20zM238 338q200 -13 203 78v34l1 137q0 138 -138 138h-156q-138 0 -138 -138l3 -582q0 -51 23.5 -83t81.5 -32h225q96 0 96 96q3 56 -39 89q29 192 -162 166v97z" />
    <glyph glyph-name="F" unicode="F" 
d="M48 -107q-28 16 -39.5 45t-11.5 67l-3 582q0 150 150 150h156q94 0 129 -60l31 -30q37 -39 37 -110l-3 -171q0 -45 -14.5 -71.5t-42.5 -43.5q11 -12 16 -35t5 -51l-3 -74q0 -36 -9.5 -57t-26 -31.5t-39 -13.5t-49.5 -3h-52v-19q0 -26 -3 -50.5t-14.5 -43.5t-34.5 -30.5
t-63 -11.5q-29 0 -49 7.5t-34 21.5zM398 489q0 -98 -98 -98h-98q-19 0 -19 -19v-152q0 -19 19 -19h79q17 0 31 -1.5t24.5 -7.5t16.5 -18t6 -32t-6 -32t-16.5 -18t-24.5 -7.5t-31 -1.5h-79q-19 0 -19 -16.5t0.5 -40.5t-4.5 -44.5t-19.5 -33.5t-45.5 -13q-38 0 -53 21.5
t-15 56.5v574q0 98 98 98h156q98 0 98 -98v-98zM438 587q0 138 -138 138h-156q-138 0 -138 -138l3 -582q0 -51 23.5 -83t81.5 -32q37 0 58 11t31.5 29t13.5 40.5t3 46.5v24v4h61q25 0 46 2.5t39 12.5t26.5 29t6 90t-146.5 67l-1 79q184 -3 184 91z" />
    <glyph glyph-name="G" unicode="G" horiz-adv-x="486" 
d="M72 -90q-40 26 -58.5 71.5t-18.5 110.5l-3 428q0 104 50 160.5t158 56.5h40q63 0 105 -19t67 -55l30 -30q27 -27 40 -68t13 -95v-148q0 -21 -3 -36v-37q0 -14 -2 -26t-4 -21q5 -11 7 -26t2 -30q-1 -88 -12.5 -148.5t-36 -97.5t-63 -53t-93.5 -16h-40q-99 0 -149 50z
M181 59q0 -19 19 -19h40q9 0 13 4t5.5 9.5t1 12.5t-0.5 13v97q-20 0 -31.5 2t-17.5 8t-8 17.5t-2 31.5q0 39 40 39h78q78 0 78 -78v-25q0 -158 -35.5 -203.5t-120.5 -45.5h-40q-81 0 -118.5 43t-37.5 122v433q0 79 37.5 122t118.5 43h40q81 0 118.5 -43t37.5 -122v-148
q0 -21 -6 -32.5t-16.5 -17.5t-24.5 -7.5t-31 -1.5q-59 0 -59 59q0 20 -19 20h-40q-19 0 -19 -20v-313zM436 520q0 98 -47 151.5t-149 53.5h-40q-102 0 -149 -53.5t-47 -151.5l3 -428q0 -97 46 -149.5t147 -52.5h40q53 0 89.5 14t59.5 41t33.5 65.5t13.5 185.5
q0 17 -2.5 30.5t-7.5 25.5q3 9 5 21t2 26v39q3 15 3 34v148z" />
    <glyph glyph-name="H" unicode="H" horiz-adv-x="486" 
d="M46 -106q-27 16 -39.5 45t-12.5 67v35l-1 566q0 59 27.5 94.5t93.5 35.5q39 0 64 -13t39 -38l5 -5q14 27 39.5 41.5t67.5 14.5q40 0 65 -13.5t39 -38.5l32 -31q17 -17 24.5 -41.5t7.5 -55.5l-3 -601q0 -56 -26 -90.5t-89 -34.5q-31 0 -51 7.5t-33 20.5l-28 28
q-11 -25 -34 -40.5t-69 -15.5q-55 0 -84 29zM398 10q0 -35 -15.5 -57t-53.5 -22q-30 0 -44.5 13.5t-19.5 34t-4.5 44.5t0.5 114q0 20 -20 20h-39q-20 0 -20 -20q0 -90 1 -114.5t-4.5 -44.5t-20 -33.5t-44.5 -13.5q-38 0 -53.5 22t-15.5 57v597q0 35 15.5 56.5t53.5 21.5
t53 -21.5t15 -56.5v-293q0 -13 1 -26.5t19 -13.5h39q20 0 20 20v313q0 35 15 56.5t53 21.5t53.5 -21.5t15.5 -56.5v-597zM438 607q0 53 -25 85.5t-84 32.5q-55 0 -80 -28t-28 -75q-3 47 -27.5 75t-79.5 28q-59 0 -84 -32.5t-25 -85.5l1 -563v-38q2 -52 26 -84t82 -32
q36 0 57 11t31.5 28.5t13.5 40.5t3 47v25v5h3q0 -4 2 -10v-19q0 -24 3 -47t13.5 -41t31.5 -29t57 -11q58 0 82 32t24 84v38q3 16 3 35v528z" />
    <glyph glyph-name="I" unicode="I" horiz-adv-x="274" 
d="M47 -107q-28 16 -39.5 45t-11.5 67v35l-3 567q0 59 27.5 94.5t93.5 35.5q38 0 62.5 -13t38.5 -36l34 -33q17 -17 24.5 -42t7.5 -56v-229.5v-156t-0.5 -97.5t-1 -52.5t-1 -23t-0.5 -8.5v-35q0 -55 -25.5 -89.5t-88.5 -34.5q-55 0 -84 29zM183 17q0 -35 -15 -56.5
t-53 -21.5t-53.5 21.5t-15.5 56.5l-1 590q0 35 15.5 56.5t53.5 21.5t53 -21.5t15 -56.5zM222 607q0 52 -24.5 85t-83.5 33t-84 -32.5t-25 -85.5l3 -602q0 -52 24 -83.5t82 -31.5t81.5 32t23.5 83v37q3 16 3 565z" />
    <glyph glyph-name="J" unicode="J" horiz-adv-x="486" 
d="M-7 176q0 52 17.5 75t47.5 30l-5 5q-26 14 -41.5 43.5t-15.5 86.5v31q-2 9 -2.5 20t-0.5 22v98q0 150 150 150h156q94 0 129 -60l31 -30q37 -39 37 -110l-3 -495q0 -103 -48 -157t-155 -54h-39q-53 0 -89.5 12.5t-60.5 36.5l-31 31q-41 28 -57.5 76.5t-16.5 115.5v19
q-2 11 -2.5 25.5t-0.5 28.5zM240 54q20 0 20 20v225q0 19 -20 19h-39q-30 0 -58 0.5t-50 9t-35 28.5t-13 60v171q0 98 98 98h156q98 0 98 -98v-485q0 -80 -37.5 -122.5t-119.5 -42.5h-39q-44 0 -74 12t-48 35t-26 55.5t-8 136.5q0 21 6 32.5t16.5 17.5t24.5 7.5t31 1.5
q24 0 36.5 -8.5t17.5 -22t5 -63v-67.5q0 -20 19 -20h39zM123 275q-26 0 -47.5 -2.5t-37 -12.5t-24.5 -30t-9 -54l3 -73q0 -50 9.5 -89t32 -67t59.5 -42.5t92 -14.5h39q102 0 148 52t46 150l3 495q0 138 -138 138h-156q-138 0 -138 -138v-98q0 -23 3 -41v-32
q0 -51 14.5 -78.5t39 -40t56.5 -14.5t67 -2h35v-77q-2 15 -7.5 28t-16.5 22.5t-28.5 15t-44.5 5.5z" />
    <glyph glyph-name="K" unicode="K" horiz-adv-x="493" 
d="M50 -107q-28 16 -39.5 45.5t-11.5 67.5q-2 34 -2.5 48.5t-0.5 24.5v528q0 57 27 93.5t93 36.5q41 0 66.5 -13.5t38.5 -39.5l4 -3q12 26 38.5 41t68.5 15q38 0 62.5 -13t38.5 -36l34 -33q17 -17 24.5 -42t7.5 -56v-264l-3 -73q0 -15 -1.5 -32t-6.5 -32q8 -22 10 -49.5
t1 -49.5v-28l-3 -73q0 -55 -25.5 -90t-88.5 -35q-32 0 -52 7t-33 20l-28 28q-10 -24 -33.5 -39.5t-69.5 -15.5q-29 0 -49 7.5t-34 21.5zM400 11q0 -35 -15 -57t-53 -22q-31 0 -45.5 13t-20 33.5t-4.5 44.5t1 114q0 20 -20 20h-39q-19 0 -19 -20q0 -90 0.5 -114t-4.5 -44.5
t-19.5 -33.5t-45.5 -13q-38 0 -53 22t-15 57v596q0 35 15 56.5t53 21.5t53.5 -21.5t15.5 -56.5v-313q0 -20 19 -20h39q20 0 20 20v313q0 35 15.5 56.5t53.5 21.5t53 -21.5t15 -56.5v-264q0 -32 -9.5 -62t-37.5 -49q21 -14 31 -31.5t13.5 -37t3 -75t-0.5 -77.5zM440 101
q1 28 0 54t-12 51q5 16 7 32.5t2 31.5l3 73v264q0 52 -24.5 85t-83.5 33q-54 0 -79 -26.5t-29 -71.5q-5 45 -29.5 71.5t-78.5 26.5q-59 0 -83.5 -33t-24.5 -85v-528l3 -73q0 -51 23.5 -83.5t81.5 -32.5q37 0 58 11t31.5 29t13.5 41t3 47v22q0 5 1 7h1l2 -8v-21q0 -24 3 -47
t13.5 -41t31.5 -29t58 -11q58 0 81.5 32.5t23.5 83.5l3 73v22z" />
    <glyph glyph-name="L" unicode="L" horiz-adv-x="417" 
d="M113 737q40 0 65 -13.5t39 -38.5l32 -31q17 -17 24.5 -41.5t7.5 -55.5v-389q26 -3 49 -14t36 -36l33 -32q12 -12 19.5 -31t7.5 -46l-3 -73q0 -59 -31 -82t-82 -23h-147q-29 0 -49 7.5t-34 21.5l-33 33q-28 16 -39.5 45.5t-11.5 67.5q-2 34 -2.5 48.5t-0.5 24.5v528
q0 57 27 93.5t93 36.5zM113 685q38 0 53.5 -21.5t15.5 -56.5v-470q0 -19 20 -19q19 0 40.5 1t40.5 -3.5t31.5 -17t12.5 -110.5q0 -32 -18.5 -45.5t-48.5 -13.5h-147q-38 0 -53 22t-15 128v528q0 35 15 56.5t53 21.5zM113 725q-59 0 -83.5 -33t-24.5 -85v-528l3 -73
q0 -51 23.5 -83.5t81.5 -32.5h147q47 0 75.5 21.5t28.5 74.5q3 56 3 73q0 36 -14 56t-35 30t-46.5 12t-49.5 1v449q0 53 -25 85.5t-84 32.5z" />
    <glyph glyph-name="M" unicode="M" horiz-adv-x="526" 
d="M113 736q18 0 43.5 -8t42.5 -25l42 -41l41 41q23 23 47.5 28t43.5 5q38 0 62 -12t36 -35l34 -33q17 -17 23.5 -42.5t6.5 -57.5v-528q0 -22 -3 -38v-35q0 -56 -25.5 -90t-88.5 -34q-32 0 -52 7t-33 20l-34 34q-8 4 -14.5 9.5t-11.5 12.5q-8 -38 -33.5 -60.5t-75.5 -22.5
q-55 0 -84 29l-33 33q-28 16 -39.5 45t-11.5 67q-2 34 -2.5 48.5t-0.5 24.5v528q0 34 5.5 58.5t19 40.5t37 23.5t58.5 7.5zM113 684q11 0 26.5 -4.5t23.5 -12.5l78 -77l77 77q11 11 26.5 14t28.5 3q38 0 50.5 -21.5t12.5 -56.5v-594q0 -35 -15 -56.5t-53 -21.5
q-24 0 -37.5 8t-20.5 21t-8.5 30.5t-1.5 37.5v216q0 7 0.5 14.5t-10.5 7.5q-5 0 -10.5 -6t-11.5 -12.5t-13 -12.5t-14 -6t-14 6t-13 12.5t-11.5 12.5t-10.5 6q-10 0 -10 -10v-23v-224q0 -35 -15 -56.5t-53 -21.5t-53.5 21.5t-15.5 56.5v594q0 42 13.5 60t54.5 18zM113 724
q-32 0 -53 -7t-33 -21t-17 -36.5t-5 -53.5v-528q0 -19 3 -73q0 -52 24 -83.5t82 -31.5t81.5 32t23.5 83v37l3 145q7 -3 19 -3h9.5t9.5 2v-89l3 -58v-15q0 -27 2.5 -51.5t13 -42.5t31.5 -29t58 -11q58 0 81.5 31.5t23.5 83.5v36q3 18 3 37v528q0 27 -4.5 48.5t-16.5 37
t-32 24t-50 8.5q-18 0 -40.5 -4.5t-42.5 -24.5l-49 -49l-50 49q-14 14 -37.5 21.5t-40.5 7.5z" />
    <glyph glyph-name="N" unicode="N" horiz-adv-x="488" 
d="M45 -106q-49 28 -49 111q-2 32 -2.5 47t-0.5 26v528q0 130 120 130q75 0 103 -50l6 -6q28 56 106 56q72 0 101 -47l36 -35q31 -31 31 -98l-3 -601q0 -124 -115 -124q-56 0 -85 29l-28 28q-26 -57 -102 -57q-55 0 -83 28zM397 16q0 -78 -69 -78q-67 0 -68 136q0 4 -3 7
l-59 58q-6 5 -11 2.5t-5 -9.5v-116q0 -78 -69 -78q-68 0 -68 78v590q0 78 68 78q69 0 69 -78v-324q0 -9 5 -14l56 -56q5 -4 11 -2t6 9v387q0 78 68 78q69 0 69 -78v-590zM437 606q0 118 -109 118q-98 0 -107 -96q-11 96 -108 96q-108 0 -108 -118v-528q0 -22 3 -73
q0 -115 105 -115q100 0 106 104l4 -4q6 -100 105 -100q106 0 106 115q3 53 3 73v528z" />
    <glyph glyph-name="O" unicode="O" 
d="M76 -91q-79 51 -79 183q-2 29 -2.5 45t-0.5 28v354q0 218 209 218h39q126 0 175 -79l27 -26q54 -54 54 -163v-354l-3 -73q0 -211 -203 -211h-39q-99 0 -150 51zM183 71q0 -20 20 -20h39q20 0 20 20v301q0 19 -20 19h-39q-20 0 -20 -19v-301zM399 99q0 -165 -157 -165h-39
q-157 0 -157 165v420q0 166 157 166h39q157 0 157 -166v-420zM439 519q0 206 -197 206h-39q-197 0 -197 -206v-354q0 -26 3 -73q0 -202 194 -202h39q194 0 194 202q3 47 3 73v354z" />
    <glyph glyph-name="P" unicode="P" 
d="M45 -106q-49 28 -49 111q-2 34 -2.5 48.5t-0.5 24.5v509q0 150 150 150h98q116 0 168 -76l29 -28q58 -58 58 -184v-82l-3 -73q0 -116 -50 -176.5t-152 -60.5h-13v-102q0 -124 -115 -124q-55 0 -83 28zM397 342q0 -185 -156 -185h-40q-19 0 -19 -20v-121q0 -78 -69 -78
q-68 0 -68 78v20v551q0 98 98 98h98q156 0 156 -186v-157zM260 372q0 19 -19 19h-40q-19 0 -19 -19v-78q0 -20 19 -20h40q19 0 19 20v78zM437 502q0 223 -196 223h-98q-138 0 -138 -138v-509q0 -20 3 -73q0 -115 105 -115q106 0 106 108v113q0 2 0.5 2.5t0.5 2.5h21
q193 -7 193 217z" />
    <glyph glyph-name="Q" unicode="Q" horiz-adv-x="486" 
d="M72 -89q-75 51 -75 181q-2 29 -2.5 45t-0.5 28v355q0 217 208 217h39q124 0 174 -77l28 -27q54 -54 54 -163l-3 -579q0 -46 -43 -77l1 -1q-16 -13 -31.5 -17.5t-31.5 -4.5q-40 0 -74 34l-6 6h-57q-100 0 -150 50zM183 72q0 -20 19 -20h39q20 0 20 20v300q0 19 -20 19h-39
q-19 0 -19 -19v-300zM398 100q0 -63 -22 -101l4 -6q43 -35 -6 -85q-49 -33 -82 15l-11 15q-18 -3 -40 -3h-39q-156 0 -156 165v420q0 165 156 165h39q157 0 157 -165v-420zM438 520q0 205 -197 205h-39q-196 0 -196 -205v-355q0 -26 3 -73q0 -202 193 -202h39h11t11 1
q34 -41 76 -41q14 0 28.5 4.5t28.5 15.5q75 63 21 137q16 49 18.5 91.5t2.5 66.5v355z" />
    <glyph glyph-name="R" unicode="R" 
d="M46 -106q-49 28 -49 111q-2 34 -2.5 48.5t-0.5 24.5v509q0 149 150 149h97q119 0 170 -77l27 -27q59 -59 59 -183v-157q0 -27 -3 -46v-27q0 -22 -1.5 -38t-6.5 -30q5 -14 8 -31.5t3 -32.5v-59l-3 -73q0 -124 -114 -124q-55 0 -84 29l-29 29q-24 -58 -103 -58
q-55 0 -83 28zM398 14q0 -78 -68 -78q-69 0 -69 78v123q0 19 -20 19h-39q-19 0 -19 -19v-123q0 -78 -69 -78q-68 0 -68 78v573q0 97 98 97h97q157 0 157 -185v-157q0 -80 -46 -111q46 -31 46 -94v-123zM261 371q0 20 -20 20h-39q-19 0 -19 -20v-78q0 -20 19 -20h39
q20 0 20 20v78zM438 137q0 35 -12 65q9 28 9 67v28q3 19 3 45v157q0 225 -197 225h-97q-138 0 -138 -137v-509q0 -20 3 -73q0 -115 105 -115q106 0 106 115v36v5h3q0 -4 1 -6v-35q0 -115 106 -115q105 0 105 115q3 53 3 73v59z" />
    <glyph glyph-name="S" unicode="S" horiz-adv-x="486" 
d="M39 -108q-44 24 -44 94q-1 18 -1.5 23t-1 5t-0.5 -2t0 2q0 36 11 60q-5 14 -6.5 29t-1.5 33l-3 384q0 217 208 217h39q124 0 174 -77l28 -27q54 -54 54 -163v-148l-3 -73q0 -15 -2.5 -28.5t-7.5 -24.5q13 -30 13 -70v-11q0 -28 -3 -49v-24q0 -211 -203 -211h-137
q-52 0 -78 26zM396 102q0 -165 -157 -165h-137q-58 0 -58 59q0 58 58 58h137q20 0 20 20t-20 20h-104q-91 0 -91 97v329q0 165 156 165h39q157 0 157 -165v-195q0 -59 -59 -59h-19q-59 0 -59 59q0 66 -20 66h-39q-19 0 -19 -19v-141q0 -20 19 -20h90q106 0 106 -98v-11z
M436 152q0 40 -18 71q11 20 15 52l3 245q0 205 -197 205h-39q-196 0 -196 -205l3 -384q0 -19 2.5 -34.5t7.5 -29.5q-13 -22 -13 -58l3 -28q0 -96 95 -96h137q194 0 194 202z" />
    <glyph glyph-name="T" unicode="T" horiz-adv-x="505" 
d="M53 288q-59 34 -59 128l-3 171q0 150 150 150h176q91 0 127 -57l32 -32q37 -36 37 -111v-98l-3 -73q0 -129 -114 -142v-196l-3 -73q0 -124 -114 -124q-55 0 -84 29l-33 33q-51 28 -51 112q-2 34 -2.5 48.5t-0.5 24.5v161q-8 5 -14 10t-11 10zM414 421q0 -97 -97 -97
q-20 0 -20 -20v-294q0 -78 -68 -78q-69 0 -69 78v294q0 20 -19 20q-98 0 -98 97v166q0 98 98 98h176q97 0 97 -98v-166zM454 587q0 138 -137 138h-176q-138 0 -138 -138l3 -171q0 -124 114 -133v-205l3 -73q0 -115 106 -115q105 0 105 115q3 53 3 73v204q114 10 114 134z
" />
    <glyph glyph-name="U" unicode="U" 
d="M78 -89q-80 55 -80 202q-2 26 -2.5 42.5t-0.5 30.5v421q0 130 120 130q75 0 103 -50l6 -6q28 56 107 56q73 0 102 -50l33 -32q32 -32 32 -98l-3 -494q0 -232 -203 -232h-39q-96 0 -145 50zM399 107q0 -186 -157 -186h-39q-156 0 -156 186v500q0 78 68 78q69 0 69 -78
v-529q0 -20 19 -20h39q20 0 20 20v529q0 78 69 78q68 0 68 -78v-500zM439 607q0 118 -108 118q-99 0 -108 -96q-11 96 -108 96q-108 0 -108 -118v-421l3 -73q0 -223 193 -223h39q194 0 194 223z" />
    <glyph glyph-name="V" unicode="V" horiz-adv-x="499" 
d="M129 -100q-33 22 -57 65q-30 57 -48.5 160t-21.5 242q-2 38 -3.5 76.5t-1.5 69.5q0 10 -0.5 22.5l-1 25t-0.5 24.5v21q0 130 121 130q74 0 102 -50l6 -6q28 56 107 56q73 0 102 -50l33 -32q32 -32 32 -98q0 -48 -0.5 -103.5t-3 -114t-7.5 -118t-13.5 -114.5t-21.5 -103.5
t-31 -85.5q-22 -41 -53.5 -63.5t-73.5 -22.5h-41q-55 0 -94 39zM399 606q0 -35 -0.5 -69t-1.5 -69q-6 -370 -67 -483q-31 -61 -86 -61h-41q-49 2 -87 61q-61 190 -66 483q-1 35 -2 69t-1 69q0 78 69 78q68 0 68 -78v-218q0 -24 2 -94.5t5.5 -104.5t9 -66t13.5 -56
q2 -8 9.5 -6.5t9.5 6.5q7 24 12.5 56t9 66t5.5 104.5t2 94.5v218q0 78 69 78q68 0 68 -78zM439 606q0 118 -108 118q-99 0 -108 -96q-11 96 -107 96q-109 0 -109 -118q0 -20 0.5 -46.5t1.5 -46.5q0 -34 1.5 -69t3.5 -77q3 -142 20.5 -240.5t48.5 -156.5v1q43 -81 120 -81h41
q78 0 119 81v-1q28 55 43.5 134t22.5 166.5t8.5 175.5t1.5 160z" />
    <glyph glyph-name="W" unicode="W" horiz-adv-x="711" 
d="M338 737q73 0 102 -51l6 -6q28 57 107 57q72 0 101 -48l35 -34q32 -32 32 -99v-39q0 -46 -0.5 -97t-3.5 -103q-2 -53 -6 -107.5t-12 -106.5t-21.5 -99.5t-33.5 -86.5q-47 -86 -128 -86h-41q-20 0 -43 8.5t-44 28.5q-21 -22 -43.5 -29.5t-43.5 -7.5h-41q-55 0 -94 39
l-30 30q-33 22 -57 65q-21 39 -34.5 87t-21.5 100.5t-12 107t-5 105.5q-2 36 -3 76t-1 71v94q0 131 121 131q74 0 102 -50l6 -6q28 56 107 56zM338 685q68 0 68 -79v-218v-56.5t3 -99.5t9 -99t18 -56q3 -7 10 -7t9 7q7 24 13 56t9.5 99t5.5 99.5t2 56.5v218q0 79 68 79
q69 0 69 -79q0 -62 -0.5 -135.5t-7 -181t-20.5 -176t-41 -119.5q-33 -61 -87 -61h-41q-20 0 -45 16.5t-42 57.5q-17 -41 -42 -57.5t-45 -16.5h-41q-54 0 -87 61q-29 54 -43.5 125.5t-20 180t-5.5 180.5v126q0 79 69 79q68 0 68 -79v-218q0 -24 2 -56.5t5.5 -99.5t9 -99
t13.5 -56q2 -8 9.5 -7t9.5 7q12 24 18 56t8.5 99t2.5 99.5v56.5v218q0 79 69 79zM338 725q-99 0 -108 -97q-11 97 -107 97q-109 0 -109 -119v-94q0 -34 1 -71t3 -75q1 -51 4.5 -105t16 -133t51.5 -158v1q43 -81 120 -81h41q20 0 43 9t44 33q21 -24 44 -33t43 -9h41
q76 0 120 81q39 78 51 156.5t15.5 133t5.5 107.5q3 52 3.5 102.5t0.5 96.5v39q0 119 -109 119q-100 0 -108 -102q-8 102 -107 102z" />
    <glyph glyph-name="X" unicode="X" 
d="M48 -107q-51 28 -51 112v34l-3 98q0 35 11 65q-8 30 -8 67l-3 337q0 131 121 131q74 0 102 -50l6 -6q28 56 107 56q72 0 101 -49l34 -33q32 -32 32 -99v-264q0 -24 -3 -42v-31q0 -19 -2 -35t-7 -31q7 -14 9.5 -30.5t2.5 -35.5l-3 -132q0 -124 -114 -124q-55 0 -83 28
l-30 30q-24 -58 -102 -58q-55 0 -84 29zM399 18q0 -78 -68 -78t-68 78l-1 119q0 19 -20 19h-39q-20 0 -20 -19l1 -119q0 -78 -68 -78q-69 0 -69 78l-1 119q0 64 48 94q-48 31 -48 111v264q0 79 69 79q68 0 68 -79v-313q0 -19 20 -19h39q20 0 20 19v313q0 79 68 79t68 -79
v-264q0 -80 -47 -111q47 -29 47 -94zM438 137q0 38 -13 65q5 15 7.5 31.5t2.5 35.5v32q3 19 3 41v264q0 119 -108 119q-101 0 -108 -102q-7 102 -107 102q-109 0 -109 -119l3 -337q0 -36 9 -66q-12 -29 -12 -66q0 -79 3 -95v-37q0 -115 106 -115q105 0 105 115v39v2h3l2 -7
v-34q0 -115 105 -115t105 115v35z" />
    <glyph glyph-name="Y" unicode="Y" horiz-adv-x="493" 
d="M157 -107q-51 28 -51 112v36l-1 2l-21 22q-85 54 -85 204q-2 25 -2.5 42t-0.5 31v264q0 131 120 131q75 0 103 -50l6 -6q28 56 107 56q72 0 101 -49l34 -33q32 -32 32 -99v-264l-3 -73q0 -166 -106 -213q0 -9 -2 -17v-34q0 -124 -114 -124q-55 0 -84 29zM400 277
q0 -150 -101 -178q-7 -4 -7 -10v-73q0 -78 -68 -78q-69 0 -69 78v73q0 7 -7 10q-100 28 -100 178v329q0 79 68 79q69 0 69 -79v-378q0 -19 19 -19h40q19 0 19 19v378q0 79 69 79q68 0 68 -79v-329zM440 606q0 119 -108 119q-99 0 -108 -96q-11 96 -108 96q-108 0 -108 -119
v-264q0 -29 3 -73q0 -162 104 -207l3 -20v-37q0 -115 106 -115q105 0 105 115v35q1 5 1.5 10.5t0.5 11.5q106 45 106 207l3 73v264z" />
    <glyph glyph-name="Z" unicode="Z" horiz-adv-x="486" 
d="M53 289q-58 34 -58 127v32q-2 8 -2.5 19t-0.5 22v98q0 149 150 149h156q92 0 128 -57l33 -33q36 -36 36 -109l-1 -171q0 -9 -0.5 -18.5t-2.5 -17.5l-95 -244q25 -13 36 -33l56 -83q14 -33 9.5 -59t-22 -43.5t-43.5 -27t-54 -9.5h-217q-59 0 -87 28l-35 35
q-22 13 -36 35.5t-11 62.5l14 58l86 218l-2 3zM396 427q0 -42 -17 -65l-131 -298q-5 -8 3 -14q1 0 3 -0.5t13 -0.5h15h46q67 0 67 -59q-14 -58 -67 -58l-217 -1q-67 0 -67 59q0 21 7 32l1 2l124 290q5 9 -4 14h-2t-8.5 0.5t0 0.5t-19.5 0q-98 0 -98 98v160q0 97 98 97h156
q98 0 98 -97v-160zM436 587q0 137 -138 137h-156q-138 0 -138 -137v-98l3 -39v-34q0 -122 109 -134l-99 -238q-5 -21 -12 -44.5t8.5 -61t97.5 -48.5h217q104 0 107 92v8q0 99 -107 99h-20q114 257 119.5 279t5.5 48v39q3 16 3 34v98z" />
    <glyph glyph-name="a" unicode="a" horiz-adv-x="493" 
d="M49 -107q-28 16 -39.5 45t-11.5 67l-3 494q0 52 10.5 95.5t35 75t64 49.5t98.5 18h39q63 0 104 -20t65 -55l29 -29q32 -32 45 -79t13 -105v-421q0 -22 -3 -37v-36q0 -56 -26 -90t-89 -34q-31 0 -51 7t-33 20l-28 28q-10 -24 -33.5 -39.5t-69.5 -15.5q-29 0 -49 7.5
t-34 21.5zM400 14q0 -35 -15.5 -56.5t-53.5 -21.5q-30 0 -44.5 13.5t-20 33.5t-5 76.5t0.5 77.5q0 19 -20 19h-39q-19 0 -19 -19q0 -22 1 -78t-4 -76.5t-19.5 -33.5t-45.5 -13q-38 0 -53 21.5t-15 56.5l-1 485q0 40 8 74t26 59t48 39t74 14h39q44 0 74 -14t48.5 -38.5
t26.5 -59t8 -74.5zM262 371q0 20 -20 20h-39q-19 0 -19 -20v-78q0 -19 19 -19h39q20 0 20 19v78zM439 499q0 49 -10 90.5t-33 71.5t-61 47t-93 17h-39q-55 0 -92.5 -17t-60.5 -47t-33 -71.5t-10 -90.5l3 -494q0 -51 23.5 -83t81.5 -32q37 0 58 11t31.5 29t13.5 41t3 47v22v6
h3q0 -5 1 -7v-22q0 -24 3 -47t13.5 -40.5t31.5 -28.5t57 -11q58 0 82 31.5t24 83.5v38q3 16 3 35v421z" />
    <glyph glyph-name="b" unicode="b" horiz-adv-x="486" 
d="M240 736q63 0 103.5 -20t64.5 -55l29 -29q32 -32 45 -79t13 -104v-157q0 -26 -3 -47v-26q0 -17 -1.5 -34t-6.5 -32q6 -16 8.5 -32.5t2.5 -33.5l-3 -73q0 -50 -14.5 -85t-41 -57t-64 -31.5t-82.5 -9.5h-128q-29 0 -49 7.5t-34 21.5l-33 33q-28 16 -39.5 45t-11.5 67
l-3 582q0 149 150 149h98zM240 684q44 0 74 -14t48 -38.5t26 -58.5t8 -74v-227q0 -32 -9 -62t-37 -49q25 -16 35.5 -40.5t10.5 -53.5q0 -75 -42.5 -106t-113.5 -31h-128q-38 0 -53 21.5t-15 56.5v579q0 97 98 97h98zM181 67q0 -20 19 -20h40q19 0 19 20q0 26 -19 26h-40
q-19 0 -19 -26zM259 371q0 20 -19 20h-40q-19 0 -19 -20v-148q0 -19 19 -19h40q19 0 19 19v148zM142 724q-138 0 -138 -137l3 -582q0 -51 23.5 -83t81.5 -32h128q43 0 79 9.5t66 31t43.5 93.5t-24.5 129q25 66 27 82.5t2 33.5v27q3 22 3 46v157q0 49 -10 90t-33 71t-60.5 47
t-92.5 17h-98z" />
    <glyph glyph-name="c" unicode="c" 
d="M74 -90q-40 26 -58.5 71.5t-18.5 110.5l-3 427q0 105 49.5 161.5t158.5 56.5h40q64 0 106.5 -19.5t67.5 -57.5l27 -27q54 -54 54 -164v-222q0 -22 -3 -37v-36q0 -37 -10 -58q9 -23 10.5 -54.5t-4.5 -65.5t-21 -66.5t-39.5 -56.5t-58.5 -36.5t-79 -5.5h-40q-99 0 -149 50z
M183 62q0 -20 19 -20h40q19 0 19 20v36t5 31.5t17.5 22t36.5 8.5h19q37 0 48 -19t11 -51q0 -79 -37.5 -122t-118.5 -43h-40q-81 0 -118.5 43t-37.5 122v429q0 79 37 122.5t119 43.5h40q82 0 119 -43.5t37 -122.5l1 -265q0 -21 -6 -32.5t-16.5 -17t-24.5 -7t-31 -1.5
q-59 0 -59 58q-1 137 -20 137h-40q-19 0 -19 -20v-309zM438 519q0 98 -46.5 152t-149.5 54h-40q-103 0 -149.5 -54t-46.5 -152l3 -427q0 -97 46 -149.5t147 -52.5h40q101 0 147 52.5t47.5 88t1.5 60.5q0 23 -3 41.5t-12 32.5q12 21 12 59v38q3 15 3 109v148z" />
    <glyph glyph-name="d" unicode="d" 
d="M46 -107q-28 16 -39 45t-11 68l-3 581q0 150 149 150h98q63 0 106 -19t68 -56l29 -29q53 -53 53 -163v-217.5t-0.5 -117.5t-1 -50.5t-1.5 -16.5v-25q0 -103 -48 -157.5t-155 -54.5h-127q-55 0 -83 28zM182 71q0 -19 19 -19h39q20 0 20 19v301q0 20 -20 20h-39
q-19 0 -19 -20v-301zM397 100q0 -80 -37.5 -123t-119.5 -43h-127q-38 0 -53 22t-15 57v574q0 98 97 98h98q82 0 119.5 -42.5t37.5 -122.5v-420zM437 520q0 100 -47 152.5t-150 52.5h-98q-137 0 -137 -138l3 -581q0 -52 23 -84t82 -32h127q102 0 148 52.5t50 150.5v26z" />
    <glyph glyph-name="e" unicode="e" horiz-adv-x="493" 
d="M52 -107q-28 16 -39.5 45t-11.5 67l-3 582q0 150 150 150h156q94 0 129 -60l31 -30q37 -39 37 -110l-3 -171q0 -45 -21.5 -76.5t-49.5 -48.5q9 -6 16 -19.5t12 -30t6 -33.5t-2 -30v-26l14 -14q28 -28 28 -79q0 -19 -3 -34v-39q0 -105 -105 -105h-225q-29 0 -49 7.5
t-34 21.5zM187 68q0 -20 19 -20h137q59 0 59 -58q0 -59 -59 -59h-225q-38 0 -53 21.5t-15 56.5v578q0 98 98 98h156q98 0 98 -98v-98q0 -98 -98 -98h-98q-19 0 -19 -19v-147q0 -20 19 -20h79q17 0 31 -1.5t24.5 -7.5t16.5 -18t6 -32t-6 -31.5t-16.5 -17.5t-25 -7.5
t-30.5 -1.5h-79q-19 0 -19 -20zM238 338q200 -13 203 78v34l1 137q0 138 -138 138h-156q-138 0 -138 -138l3 -582q0 -51 23.5 -83t81.5 -32h225q96 0 96 96q3 56 -39 89q29 192 -162 166v97z" />
    <glyph glyph-name="f" unicode="f" 
d="M48 -107q-28 16 -39.5 45t-11.5 67l-3 582q0 150 150 150h156q94 0 129 -60l31 -30q37 -39 37 -110l-3 -171q0 -45 -14.5 -71.5t-42.5 -43.5q11 -12 16 -35t5 -51l-3 -74q0 -36 -9.5 -57t-26 -31.5t-39 -13.5t-49.5 -3h-52v-19q0 -26 -3 -50.5t-14.5 -43.5t-34.5 -30.5
t-63 -11.5q-29 0 -49 7.5t-34 21.5zM398 489q0 -98 -98 -98h-98q-19 0 -19 -19v-152q0 -19 19 -19h79q17 0 31 -1.5t24.5 -7.5t16.5 -18t6 -32t-6 -32t-16.5 -18t-24.5 -7.5t-31 -1.5h-79q-19 0 -19 -16.5t0.5 -40.5t-4.5 -44.5t-19.5 -33.5t-45.5 -13q-38 0 -53 21.5
t-15 56.5v574q0 98 98 98h156q98 0 98 -98v-98zM438 587q0 138 -138 138h-156q-138 0 -138 -138l3 -582q0 -51 23.5 -83t81.5 -32q37 0 58 11t31.5 29t13.5 40.5t3 46.5v24v4h61q25 0 46 2.5t39 12.5t26.5 29t6 90t-146.5 67l-1 79q184 -3 184 91z" />
    <glyph glyph-name="g" unicode="g" horiz-adv-x="486" 
d="M72 -90q-40 26 -58.5 71.5t-18.5 110.5l-3 428q0 104 50 160.5t158 56.5h40q63 0 105 -19t67 -55l30 -30q27 -27 40 -68t13 -95v-148q0 -21 -3 -36v-37q0 -14 -2 -26t-4 -21q5 -11 7 -26t2 -30q-1 -88 -12.5 -148.5t-36 -97.5t-63 -53t-93.5 -16h-40q-99 0 -149 50z
M181 59q0 -19 19 -19h40q9 0 13 4t5.5 9.5t1 12.5t-0.5 13v97q-20 0 -31.5 2t-17.5 8t-8 17.5t-2 31.5q0 39 40 39h78q78 0 78 -78v-25q0 -158 -35.5 -203.5t-120.5 -45.5h-40q-81 0 -118.5 43t-37.5 122v433q0 79 37.5 122t118.5 43h40q81 0 118.5 -43t37.5 -122v-148
q0 -21 -6 -32.5t-16.5 -17.5t-24.5 -7.5t-31 -1.5q-59 0 -59 59q0 20 -19 20h-40q-19 0 -19 -20v-313zM436 520q0 98 -47 151.5t-149 53.5h-40q-102 0 -149 -53.5t-47 -151.5l3 -428q0 -97 46 -149.5t147 -52.5h40q53 0 89.5 14t59.5 41t33.5 65.5t13.5 185.5
q0 17 -2.5 30.5t-7.5 25.5q3 9 5 21t2 26v39q3 15 3 34v148z" />
    <glyph glyph-name="h" unicode="h" horiz-adv-x="486" 
d="M46 -106q-27 16 -39.5 45t-12.5 67v35l-1 566q0 59 27.5 94.5t93.5 35.5q39 0 64 -13t39 -38l5 -5q14 27 39.5 41.5t67.5 14.5q40 0 65 -13.5t39 -38.5l32 -31q17 -17 24.5 -41.5t7.5 -55.5l-3 -601q0 -56 -26 -90.5t-89 -34.5q-31 0 -51 7.5t-33 20.5l-28 28
q-11 -25 -34 -40.5t-69 -15.5q-55 0 -84 29zM398 10q0 -35 -15.5 -57t-53.5 -22q-30 0 -44.5 13.5t-19.5 34t-4.5 44.5t0.5 114q0 20 -20 20h-39q-20 0 -20 -20q0 -90 1 -114.5t-4.5 -44.5t-20 -33.5t-44.5 -13.5q-38 0 -53.5 22t-15.5 57v597q0 35 15.5 56.5t53.5 21.5
t53 -21.5t15 -56.5v-293q0 -13 1 -26.5t19 -13.5h39q20 0 20 20v313q0 35 15 56.5t53 21.5t53.5 -21.5t15.5 -56.5v-597zM438 607q0 53 -25 85.5t-84 32.5q-55 0 -80 -28t-28 -75q-3 47 -27.5 75t-79.5 28q-59 0 -84 -32.5t-25 -85.5l1 -563v-38q2 -52 26 -84t82 -32
q36 0 57 11t31.5 28.5t13.5 40.5t3 47v25v5h3q0 -4 2 -10v-19q0 -24 3 -47t13.5 -41t31.5 -29t57 -11q58 0 82 32t24 84v38q3 16 3 35v528z" />
    <glyph glyph-name="i" unicode="i" horiz-adv-x="274" 
d="M47 -107q-28 16 -39.5 45t-11.5 67v35l-3 567q0 59 27.5 94.5t93.5 35.5q38 0 62.5 -13t38.5 -36l34 -33q17 -17 24.5 -42t7.5 -56v-229.5v-156t-0.5 -97.5t-1 -52.5t-1 -23t-0.5 -8.5v-35q0 -55 -25.5 -89.5t-88.5 -34.5q-55 0 -84 29zM183 17q0 -35 -15 -56.5
t-53 -21.5t-53.5 21.5t-15.5 56.5l-1 590q0 35 15.5 56.5t53.5 21.5t53 -21.5t15 -56.5zM222 607q0 52 -24.5 85t-83.5 33t-84 -32.5t-25 -85.5l3 -602q0 -52 24 -83.5t82 -31.5t81.5 32t23.5 83v37q3 16 3 565z" />
    <glyph glyph-name="j" unicode="j" horiz-adv-x="486" 
d="M-7 176q0 52 17.5 75t47.5 30l-5 5q-26 14 -41.5 43.5t-15.5 86.5v31q-2 9 -2.5 20t-0.5 22v98q0 150 150 150h156q94 0 129 -60l31 -30q37 -39 37 -110l-3 -495q0 -103 -48 -157t-155 -54h-39q-53 0 -89.5 12.5t-60.5 36.5l-31 31q-41 28 -57.5 76.5t-16.5 115.5v19
q-2 11 -2.5 25.5t-0.5 28.5zM240 54q20 0 20 20v225q0 19 -20 19h-39q-30 0 -58 0.5t-50 9t-35 28.5t-13 60v171q0 98 98 98h156q98 0 98 -98v-485q0 -80 -37.5 -122.5t-119.5 -42.5h-39q-44 0 -74 12t-48 35t-26 55.5t-8 136.5q0 21 6 32.5t16.5 17.5t24.5 7.5t31 1.5
q24 0 36.5 -8.5t17.5 -22t5 -63v-67.5q0 -20 19 -20h39zM123 275q-26 0 -47.5 -2.5t-37 -12.5t-24.5 -30t-9 -54l3 -73q0 -50 9.5 -89t32 -67t59.5 -42.5t92 -14.5h39q102 0 148 52t46 150l3 495q0 138 -138 138h-156q-138 0 -138 -138v-98q0 -23 3 -41v-32
q0 -51 14.5 -78.5t39 -40t56.5 -14.5t67 -2h35v-77q-2 15 -7.5 28t-16.5 22.5t-28.5 15t-44.5 5.5z" />
    <glyph glyph-name="k" unicode="k" horiz-adv-x="493" 
d="M50 -107q-28 16 -39.5 45.5t-11.5 67.5q-2 34 -2.5 48.5t-0.5 24.5v528q0 57 27 93.5t93 36.5q41 0 66.5 -13.5t38.5 -39.5l4 -3q12 26 38.5 41t68.5 15q38 0 62.5 -13t38.5 -36l34 -33q17 -17 24.5 -42t7.5 -56v-264l-3 -73q0 -15 -1.5 -32t-6.5 -32q8 -22 10 -49.5
t1 -49.5v-28l-3 -73q0 -55 -25.5 -90t-88.5 -35q-32 0 -52 7t-33 20l-28 28q-10 -24 -33.5 -39.5t-69.5 -15.5q-29 0 -49 7.5t-34 21.5zM400 11q0 -35 -15 -57t-53 -22q-31 0 -45.5 13t-20 33.5t-4.5 44.5t1 114q0 20 -20 20h-39q-19 0 -19 -20q0 -90 0.5 -114t-4.5 -44.5
t-19.5 -33.5t-45.5 -13q-38 0 -53 22t-15 57v596q0 35 15 56.5t53 21.5t53.5 -21.5t15.5 -56.5v-313q0 -20 19 -20h39q20 0 20 20v313q0 35 15.5 56.5t53.5 21.5t53 -21.5t15 -56.5v-264q0 -32 -9.5 -62t-37.5 -49q21 -14 31 -31.5t13.5 -37t3 -75t-0.5 -77.5zM440 101
q1 28 0 54t-12 51q5 16 7 32.5t2 31.5l3 73v264q0 52 -24.5 85t-83.5 33q-54 0 -79 -26.5t-29 -71.5q-5 45 -29.5 71.5t-78.5 26.5q-59 0 -83.5 -33t-24.5 -85v-528l3 -73q0 -51 23.5 -83.5t81.5 -32.5q37 0 58 11t31.5 29t13.5 41t3 47v22q0 5 1 7h1l2 -8v-21q0 -24 3 -47
t13.5 -41t31.5 -29t58 -11q58 0 81.5 32.5t23.5 83.5l3 73v22z" />
    <glyph glyph-name="l" unicode="l" horiz-adv-x="417" 
d="M113 737q40 0 65 -13.5t39 -38.5l32 -31q17 -17 24.5 -41.5t7.5 -55.5v-389q26 -3 49 -14t36 -36l33 -32q12 -12 19.5 -31t7.5 -46l-3 -73q0 -59 -31 -82t-82 -23h-147q-29 0 -49 7.5t-34 21.5l-33 33q-28 16 -39.5 45.5t-11.5 67.5q-2 34 -2.5 48.5t-0.5 24.5v528
q0 57 27 93.5t93 36.5zM113 685q38 0 53.5 -21.5t15.5 -56.5v-470q0 -19 20 -19q19 0 40.5 1t40.5 -3.5t31.5 -17t12.5 -110.5q0 -32 -18.5 -45.5t-48.5 -13.5h-147q-38 0 -53 22t-15 128v528q0 35 15 56.5t53 21.5zM113 725q-59 0 -83.5 -33t-24.5 -85v-528l3 -73
q0 -51 23.5 -83.5t81.5 -32.5h147q47 0 75.5 21.5t28.5 74.5q3 56 3 73q0 36 -14 56t-35 30t-46.5 12t-49.5 1v449q0 53 -25 85.5t-84 32.5z" />
    <glyph glyph-name="m" unicode="m" horiz-adv-x="526" 
d="M113 736q18 0 43.5 -8t42.5 -25l42 -41l41 41q23 23 47.5 28t43.5 5q38 0 62 -12t36 -35l34 -33q17 -17 23.5 -42.5t6.5 -57.5v-528q0 -22 -3 -38v-35q0 -56 -25.5 -90t-88.5 -34q-32 0 -52 7t-33 20l-34 34q-8 4 -14.5 9.5t-11.5 12.5q-8 -38 -33.5 -60.5t-75.5 -22.5
q-55 0 -84 29l-33 33q-28 16 -39.5 45t-11.5 67q-2 34 -2.5 48.5t-0.5 24.5v528q0 34 5.5 58.5t19 40.5t37 23.5t58.5 7.5zM113 684q11 0 26.5 -4.5t23.5 -12.5l78 -77l77 77q11 11 26.5 14t28.5 3q38 0 50.5 -21.5t12.5 -56.5v-594q0 -35 -15 -56.5t-53 -21.5
q-24 0 -37.5 8t-20.5 21t-8.5 30.5t-1.5 37.5v216q0 7 0.5 14.5t-10.5 7.5q-5 0 -10.5 -6t-11.5 -12.5t-13 -12.5t-14 -6t-14 6t-13 12.5t-11.5 12.5t-10.5 6q-10 0 -10 -10v-23v-224q0 -35 -15 -56.5t-53 -21.5t-53.5 21.5t-15.5 56.5v594q0 42 13.5 60t54.5 18zM113 724
q-32 0 -53 -7t-33 -21t-17 -36.5t-5 -53.5v-528q0 -19 3 -73q0 -52 24 -83.5t82 -31.5t81.5 32t23.5 83v37l3 145q7 -3 19 -3h9.5t9.5 2v-89l3 -58v-15q0 -27 2.5 -51.5t13 -42.5t31.5 -29t58 -11q58 0 81.5 31.5t23.5 83.5v36q3 18 3 37v528q0 27 -4.5 48.5t-16.5 37
t-32 24t-50 8.5q-18 0 -40.5 -4.5t-42.5 -24.5l-49 -49l-50 49q-14 14 -37.5 21.5t-40.5 7.5z" />
    <glyph glyph-name="n" unicode="n" horiz-adv-x="488" 
d="M45 -106q-49 28 -49 111q-2 32 -2.5 47t-0.5 26v528q0 130 120 130q75 0 103 -50l6 -6q28 56 106 56q72 0 101 -47l36 -35q31 -31 31 -98l-3 -601q0 -124 -115 -124q-56 0 -85 29l-28 28q-26 -57 -102 -57q-55 0 -83 28zM397 16q0 -78 -69 -78q-67 0 -68 136q0 4 -3 7
l-59 58q-6 5 -11 2.5t-5 -9.5v-116q0 -78 -69 -78q-68 0 -68 78v590q0 78 68 78q69 0 69 -78v-324q0 -9 5 -14l56 -56q5 -4 11 -2t6 9v387q0 78 68 78q69 0 69 -78v-590zM437 606q0 118 -109 118q-98 0 -107 -96q-11 96 -108 96q-108 0 -108 -118v-528q0 -22 3 -73
q0 -115 105 -115q100 0 106 104l4 -4q6 -100 105 -100q106 0 106 115q3 53 3 73v528z" />
    <glyph glyph-name="o" unicode="o" 
d="M76 -91q-79 51 -79 183q-2 29 -2.5 45t-0.5 28v354q0 218 209 218h39q126 0 175 -79l27 -26q54 -54 54 -163v-354l-3 -73q0 -211 -203 -211h-39q-99 0 -150 51zM183 71q0 -20 20 -20h39q20 0 20 20v301q0 19 -20 19h-39q-20 0 -20 -19v-301zM399 99q0 -165 -157 -165h-39
q-157 0 -157 165v420q0 166 157 166h39q157 0 157 -166v-420zM439 519q0 206 -197 206h-39q-197 0 -197 -206v-354q0 -26 3 -73q0 -202 194 -202h39q194 0 194 202q3 47 3 73v354z" />
    <glyph glyph-name="p" unicode="p" 
d="M45 -106q-49 28 -49 111q-2 34 -2.5 48.5t-0.5 24.5v509q0 150 150 150h98q116 0 168 -76l29 -28q58 -58 58 -184v-82l-3 -73q0 -116 -50 -176.5t-152 -60.5h-13v-102q0 -124 -115 -124q-55 0 -83 28zM397 342q0 -185 -156 -185h-40q-19 0 -19 -20v-121q0 -78 -69 -78
q-68 0 -68 78v20v551q0 98 98 98h98q156 0 156 -186v-157zM260 372q0 19 -19 19h-40q-19 0 -19 -19v-78q0 -20 19 -20h40q19 0 19 20v78zM437 502q0 223 -196 223h-98q-138 0 -138 -138v-509q0 -20 3 -73q0 -115 105 -115q106 0 106 108v113q0 2 0.5 2.5t0.5 2.5h21
q193 -7 193 217z" />
    <glyph glyph-name="q" unicode="q" horiz-adv-x="486" 
d="M72 -89q-75 51 -75 181q-2 29 -2.5 45t-0.5 28v355q0 217 208 217h39q124 0 174 -77l28 -27q54 -54 54 -163l-3 -579q0 -46 -43 -77l1 -1q-16 -13 -31.5 -17.5t-31.5 -4.5q-40 0 -74 34l-6 6h-57q-100 0 -150 50zM183 72q0 -20 19 -20h39q20 0 20 20v300q0 19 -20 19h-39
q-19 0 -19 -19v-300zM398 100q0 -63 -22 -101l4 -6q43 -35 -6 -85q-49 -33 -82 15l-11 15q-18 -3 -40 -3h-39q-156 0 -156 165v420q0 165 156 165h39q157 0 157 -165v-420zM438 520q0 205 -197 205h-39q-196 0 -196 -205v-355q0 -26 3 -73q0 -202 193 -202h39h11t11 1
q34 -41 76 -41q14 0 28.5 4.5t28.5 15.5q75 63 21 137q16 49 18.5 91.5t2.5 66.5v355z" />
    <glyph glyph-name="r" unicode="r" 
d="M46 -106q-49 28 -49 111q-2 34 -2.5 48.5t-0.5 24.5v509q0 149 150 149h97q119 0 170 -77l27 -27q59 -59 59 -183v-157q0 -27 -3 -46v-27q0 -22 -1.5 -38t-6.5 -30q5 -14 8 -31.5t3 -32.5v-59l-3 -73q0 -124 -114 -124q-55 0 -84 29l-29 29q-24 -58 -103 -58
q-55 0 -83 28zM398 14q0 -78 -68 -78q-69 0 -69 78v123q0 19 -20 19h-39q-19 0 -19 -19v-123q0 -78 -69 -78q-68 0 -68 78v573q0 97 98 97h97q157 0 157 -185v-157q0 -80 -46 -111q46 -31 46 -94v-123zM261 371q0 20 -20 20h-39q-19 0 -19 -20v-78q0 -20 19 -20h39
q20 0 20 20v78zM438 137q0 35 -12 65q9 28 9 67v28q3 19 3 45v157q0 225 -197 225h-97q-138 0 -138 -137v-509q0 -20 3 -73q0 -115 105 -115q106 0 106 115v36v5h3q0 -4 1 -6v-35q0 -115 106 -115q105 0 105 115q3 53 3 73v59z" />
    <glyph glyph-name="s" unicode="s" horiz-adv-x="486" 
d="M39 -108q-44 24 -44 94q-1 18 -1.5 23t-1 5t-0.5 -2t0 2q0 36 11 60q-5 14 -6.5 29t-1.5 33l-3 384q0 217 208 217h39q124 0 174 -77l28 -27q54 -54 54 -163v-148l-3 -73q0 -15 -2.5 -28.5t-7.5 -24.5q13 -30 13 -70v-11q0 -28 -3 -49v-24q0 -211 -203 -211h-137
q-52 0 -78 26zM396 102q0 -165 -157 -165h-137q-58 0 -58 59q0 58 58 58h137q20 0 20 20t-20 20h-104q-91 0 -91 97v329q0 165 156 165h39q157 0 157 -165v-195q0 -59 -59 -59h-19q-59 0 -59 59q0 66 -20 66h-39q-19 0 -19 -19v-141q0 -20 19 -20h90q106 0 106 -98v-11z
M436 152q0 40 -18 71q11 20 15 52l3 245q0 205 -197 205h-39q-196 0 -196 -205l3 -384q0 -19 2.5 -34.5t7.5 -29.5q-13 -22 -13 -58l3 -28q0 -96 95 -96h137q194 0 194 202z" />
    <glyph glyph-name="t" unicode="t" horiz-adv-x="505" 
d="M53 288q-59 34 -59 128l-3 171q0 150 150 150h176q91 0 127 -57l32 -32q37 -36 37 -111v-98l-3 -73q0 -129 -114 -142v-196l-3 -73q0 -124 -114 -124q-55 0 -84 29l-33 33q-51 28 -51 112q-2 34 -2.5 48.5t-0.5 24.5v161q-8 5 -14 10t-11 10zM414 421q0 -97 -97 -97
q-20 0 -20 -20v-294q0 -78 -68 -78q-69 0 -69 78v294q0 20 -19 20q-98 0 -98 97v166q0 98 98 98h176q97 0 97 -98v-166zM454 587q0 138 -137 138h-176q-138 0 -138 -138l3 -171q0 -124 114 -133v-205l3 -73q0 -115 106 -115q105 0 105 115q3 53 3 73v204q114 10 114 134z
" />
    <glyph glyph-name="u" unicode="u" 
d="M78 -89q-80 55 -80 202q-2 26 -2.5 42.5t-0.5 30.5v421q0 130 120 130q75 0 103 -50l6 -6q28 56 107 56q73 0 102 -50l33 -32q32 -32 32 -98l-3 -494q0 -232 -203 -232h-39q-96 0 -145 50zM399 107q0 -186 -157 -186h-39q-156 0 -156 186v500q0 78 68 78q69 0 69 -78
v-529q0 -20 19 -20h39q20 0 20 20v529q0 78 69 78q68 0 68 -78v-500zM439 607q0 118 -108 118q-99 0 -108 -96q-11 96 -108 96q-108 0 -108 -118v-421l3 -73q0 -223 193 -223h39q194 0 194 223z" />
    <glyph glyph-name="v" unicode="v" horiz-adv-x="499" 
d="M129 -100q-33 22 -57 65q-30 57 -48.5 160t-21.5 242q-2 38 -3.5 76.5t-1.5 69.5q0 10 -0.5 22.5l-1 25t-0.5 24.5v21q0 130 121 130q74 0 102 -50l6 -6q28 56 107 56q73 0 102 -50l33 -32q32 -32 32 -98q0 -48 -0.5 -103.5t-3 -114t-7.5 -118t-13.5 -114.5t-21.5 -103.5
t-31 -85.5q-22 -41 -53.5 -63.5t-73.5 -22.5h-41q-55 0 -94 39zM399 606q0 -35 -0.5 -69t-1.5 -69q-6 -370 -67 -483q-31 -61 -86 -61h-41q-49 2 -87 61q-61 190 -66 483q-1 35 -2 69t-1 69q0 78 69 78q68 0 68 -78v-218q0 -24 2 -94.5t5.5 -104.5t9 -66t13.5 -56
q2 -8 9.5 -6.5t9.5 6.5q7 24 12.5 56t9 66t5.5 104.5t2 94.5v218q0 78 69 78q68 0 68 -78zM439 606q0 118 -108 118q-99 0 -108 -96q-11 96 -107 96q-109 0 -109 -118q0 -20 0.5 -46.5t1.5 -46.5q0 -34 1.5 -69t3.5 -77q3 -142 20.5 -240.5t48.5 -156.5v1q43 -81 120 -81h41
q78 0 119 81v-1q28 55 43.5 134t22.5 166.5t8.5 175.5t1.5 160z" />
    <glyph glyph-name="w" unicode="w" horiz-adv-x="711" 
d="M338 737q73 0 102 -51l6 -6q28 57 107 57q72 0 101 -48l35 -34q32 -32 32 -99v-39q0 -46 -0.5 -97t-3.5 -103q-2 -53 -6 -107.5t-12 -106.5t-21.5 -99.5t-33.5 -86.5q-47 -86 -128 -86h-41q-20 0 -43 8.5t-44 28.5q-21 -22 -43.5 -29.5t-43.5 -7.5h-41q-55 0 -94 39
l-30 30q-33 22 -57 65q-21 39 -34.5 87t-21.5 100.5t-12 107t-5 105.5q-2 36 -3 76t-1 71v94q0 131 121 131q74 0 102 -50l6 -6q28 56 107 56zM338 685q68 0 68 -79v-218v-56.5t3 -99.5t9 -99t18 -56q3 -7 10 -7t9 7q7 24 13 56t9.5 99t5.5 99.5t2 56.5v218q0 79 68 79
q69 0 69 -79q0 -62 -0.5 -135.5t-7 -181t-20.5 -176t-41 -119.5q-33 -61 -87 -61h-41q-20 0 -45 16.5t-42 57.5q-17 -41 -42 -57.5t-45 -16.5h-41q-54 0 -87 61q-29 54 -43.5 125.5t-20 180t-5.5 180.5v126q0 79 69 79q68 0 68 -79v-218q0 -24 2 -56.5t5.5 -99.5t9 -99
t13.5 -56q2 -8 9.5 -7t9.5 7q12 24 18 56t8.5 99t2.5 99.5v56.5v218q0 79 69 79zM338 725q-99 0 -108 -97q-11 97 -107 97q-109 0 -109 -119v-94q0 -34 1 -71t3 -75q1 -51 4.5 -105t16 -133t51.5 -158v1q43 -81 120 -81h41q20 0 43 9t44 33q21 -24 44 -33t43 -9h41
q76 0 120 81q39 78 51 156.5t15.5 133t5.5 107.5q3 52 3.5 102.5t0.5 96.5v39q0 119 -109 119q-100 0 -108 -102q-8 102 -107 102z" />
    <glyph glyph-name="x" unicode="x" 
d="M48 -107q-51 28 -51 112v34l-3 98q0 35 11 65q-8 30 -8 67l-3 337q0 131 121 131q74 0 102 -50l6 -6q28 56 107 56q72 0 101 -49l34 -33q32 -32 32 -99v-264q0 -24 -3 -42v-31q0 -19 -2 -35t-7 -31q7 -14 9.5 -30.5t2.5 -35.5l-3 -132q0 -124 -114 -124q-55 0 -83 28
l-30 30q-24 -58 -102 -58q-55 0 -84 29zM399 18q0 -78 -68 -78t-68 78l-1 119q0 19 -20 19h-39q-20 0 -20 -19l1 -119q0 -78 -68 -78q-69 0 -69 78l-1 119q0 64 48 94q-48 31 -48 111v264q0 79 69 79q68 0 68 -79v-313q0 -19 20 -19h39q20 0 20 19v313q0 79 68 79t68 -79
v-264q0 -80 -47 -111q47 -29 47 -94zM438 137q0 38 -13 65q5 15 7.5 31.5t2.5 35.5v32q3 19 3 41v264q0 119 -108 119q-101 0 -108 -102q-7 102 -107 102q-109 0 -109 -119l3 -337q0 -36 9 -66q-12 -29 -12 -66q0 -79 3 -95v-37q0 -115 106 -115q105 0 105 115v39v2h3l2 -7
v-34q0 -115 105 -115t105 115v35z" />
    <glyph glyph-name="y" unicode="y" horiz-adv-x="493" 
d="M157 -107q-51 28 -51 112v36l-1 2l-21 22q-85 54 -85 204q-2 25 -2.5 42t-0.5 31v264q0 131 120 131q75 0 103 -50l6 -6q28 56 107 56q72 0 101 -49l34 -33q32 -32 32 -99v-264l-3 -73q0 -166 -106 -213q0 -9 -2 -17v-34q0 -124 -114 -124q-55 0 -84 29zM400 277
q0 -150 -101 -178q-7 -4 -7 -10v-73q0 -78 -68 -78q-69 0 -69 78v73q0 7 -7 10q-100 28 -100 178v329q0 79 68 79q69 0 69 -79v-378q0 -19 19 -19h40q19 0 19 19v378q0 79 69 79q68 0 68 -79v-329zM440 606q0 119 -108 119q-99 0 -108 -96q-11 96 -108 96q-108 0 -108 -119
v-264q0 -29 3 -73q0 -162 104 -207l3 -20v-37q0 -115 106 -115q105 0 105 115v35q1 5 1.5 10.5t0.5 11.5q106 45 106 207l3 73v264z" />
    <glyph glyph-name="z" unicode="z" horiz-adv-x="486" 
d="M53 289q-58 34 -58 127v32q-2 8 -2.5 19t-0.5 22v98q0 149 150 149h156q92 0 128 -57l33 -33q36 -36 36 -109l-1 -171q0 -9 -0.5 -18.5t-2.5 -17.5l-95 -244q25 -13 36 -33l56 -83q14 -33 9.5 -59t-22 -43.5t-43.5 -27t-54 -9.5h-217q-59 0 -87 28l-35 35
q-22 13 -36 35.5t-11 62.5l14 58l86 218l-2 3zM396 427q0 -42 -17 -65l-131 -298q-5 -8 3 -14q1 0 3 -0.5t13 -0.5h15h46q67 0 67 -59q-14 -58 -67 -58l-217 -1q-67 0 -67 59q0 21 7 32l1 2l124 290q5 9 -4 14h-2t-8.5 0.5t0 0.5t-19.5 0q-98 0 -98 98v160q0 97 98 97h156
q98 0 98 -97v-160zM436 587q0 137 -138 137h-156q-138 0 -138 -137v-98l3 -39v-34q0 -122 109 -134l-99 -238q-5 -21 -12 -44.5t8.5 -61t97.5 -48.5h217q104 0 107 92v8q0 99 -107 99h-20q114 257 119.5 279t5.5 48v39q3 16 3 34v98z" />
  </font>
</defs>
</svg>
